<svg xmlns="http://www.w3.org/2000/svg" viewBox="0 0 32 32" width="32" height="32">
  <defs>
    <linearGradient id="s1" x1="0%" y1="0%" x2="100%" y2="100%">
      <stop offset="0%" stop-color="#a855f7"/>
      <stop offset="100%" stop-color="#ec4899"/>
    </linearGradient>
    <linearGradient id="s2" x1="0%" y1="100%" x2="100%" y2="0%">
      <stop offset="0%" stop-color="#06b6d4"/>
      <stop offset="100%" stop-color="#22c55e"/>
    </linearGradient>
    <linearGradient id="core" x1="0%" y1="0%" x2="100%" y2="100%">
      <stop offset="0%" stop-color="#a855f7"/>
      <stop offset="33%" stop-color="#ec4899"/>
      <stop offset="66%" stop-color="#06b6d4"/>
      <stop offset="100%" stop-color="#22c55e"/>
    </linearGradient>
  </defs>
  <path d="M 8.96 8.96 C 8.96 14.4, 14.4 14.8, 16 16 C 17.6 17.2, 23.04 17.6, 23.04 23.04" stroke="url(#s2)" stroke-width="2.56" stroke-linecap="round" fill="none" opacity="0.35"/>
  <path d="M 23.04 8.96 C 23.04 14.4, 17.6 14.8, 16 16 C 14.4 17.2, 8.96 17.6, 8.96 23.04" stroke="url(#s1)" stroke-width="2.56" stroke-linecap="round" fill="none"/>
  <path d="M 16 16 C 17.6 17.2, 23.04 17.6, 23.04 23.04" stroke="url(#s2)" stroke-width="2.56" stroke-linecap="round" fill="none"/>
  <circle cx="16" cy="16" r="1.6" fill="#1a1a2e"/>
  <circle cx="16" cy="16" r="1.12" fill="url(#core)"/>
  <circle cx="16" cy="16" r="0.48" fill="white"/>
  <circle cx="23.04" cy="8.96" r="0.96" fill="#ec4899"/>
  <circle cx="8.96" cy="8.96" r="0.96" fill="#06b6d4"/>
  <circle cx="8.96" cy="23.04" r="0.96" fill="#a855f7"/>
  <circle cx="23.04" cy="23.04" r="0.96" fill="#22c55e"/>
</svg>
