<svg width="200" height="200" viewBox="0 0 200 200" fill="none" xmlns="http://www.w3.org/2000/svg">
  <defs>
    <linearGradient id="s1" x1="0%" y1="0%" x2="100%" y2="100%">
      <stop offset="0%" stop-color="#a855f7" />
      <stop offset="100%" stop-color="#ec4899" />
    </linearGradient>
    <linearGradient id="s2" x1="0%" y1="100%" x2="100%" y2="0%">
      <stop offset="0%" stop-color="#06b6d4" />
      <stop offset="100%" stop-color="#22c55e" />
    </linearGradient>
    <linearGradient id="core" x1="0%" y1="0%" x2="100%" y2="100%">
      <stop offset="0%" stop-color="#a855f7" />
      <stop offset="33%" stop-color="#ec4899" />
      <stop offset="66%" stop-color="#06b6d4" />
      <stop offset="100%" stop-color="#22c55e" />
    </linearGradient>
  </defs>
  <path d="M 56 56 C 56 90, 90 95, 100 100 C 110 105, 144 110, 144 144" stroke="url(#s2)" stroke-width="16" stroke-linecap="round" fill="none" opacity="0.35" />
  <path d="M 144 56 C 144 90, 110 95, 100 100 C 90 105, 56 110, 56 144" stroke="url(#s1)" stroke-width="16" stroke-linecap="round" fill="none" />
  <path d="M 100 100 C 110 105, 144 110, 144 144" stroke="url(#s2)" stroke-width="16" stroke-linecap="round" fill="none" />
  <circle cx="100" cy="100" r="10" fill="#1a1a2e" />
  <circle cx="100" cy="100" r="7" fill="url(#core)" />
  <circle cx="100" cy="100" r="3" fill="white" />
  <circle cx="144" cy="56" r="6" fill="#ec4899" />
  <circle cx="56" cy="56" r="6" fill="#06b6d4" />
  <circle cx="56" cy="144" r="6" fill="#a855f7" />
  <circle cx="144" cy="144" r="6" fill="#22c55e" />
</svg>
